<svg
  version="1.1"
  xmlns="http://www.w3.org/2000/svg"
  xmlns:xlink="http://www.w3.org/1999/xlink"
  class="MuiSvgIcon-root"
  focusable="false"
  viewBox="0 0 56 56"
  aria-hidden="true"
  style="
    transition: fill 225ms cubic-bezier(0.4, 0, 0.6, 1) 0ms,
      color 225ms cubic-bezier(0.4, 0, 0.6, 1) 0ms;
    border-right: 0px;
    font-size: min(40px, max(29px, ((100vh - 64px) / 12) * 0.6));
  "
>
  <g fill="white" class="jsx-2668120564">
    <path
      d="M20.554 49.971l.522-2.955 12.805 2.262-.522 2.955zM21.405 45.037l12.8 2.258 5.209-29.544-12.8-2.258zm7.469-25.084l6.894 1.216a1 1 0 11-.348 1.97l-6.894-1.216a1 1 0 01.348-1.97zm-.694 3.94l6.893 1.215a1 1 0 11-.347 1.97l-6.894-1.216a1 1 0 11.348-1.969zM26.974 13.52l.522-2.956 12.805 2.262-.522 2.955zM23.229 22.037a1 1 0 00-.642-1.26l-10.462-3.4a1 1 0 00-1.26.642l-.617 1.9L22.61 23.94zM40 8.714L29.162 6.8A1 1 0 0028 7.615l-.173.984 12.8 2.258.174-.985A1 1 0 0040 8.714zM20.016 52.916a1 1 0 00.811 1.158l10.833 1.91a1 1 0 001.158-.811l.174-.984-12.8-2.258zM.05 51.307a1 1 0 00.641 1.26l10.462 3.4a1 1 0 001.26-.642l.621-1.91L.67 49.4zM9.63 21.823L1.288 47.5l12.364 4.014 8.34-25.668zm-3 24.767a1 1 0 01-.951-1.309l5.47-16.849a1 1 0 111.9.617L7.581 45.9a1 1 0 01-.951.69zm5.391.748a1 1 0 11-1.902-.617l2.93-9.03a1 1 0 111.9.618zM43 55a1 1 0 001 1h11a1 1 0 001-1v-1H43zM47 14h5v28h-5zM43 4h13v3H43zM43 49h13v3H43zM55 0H44a1 1 0 00-1 1v1h13V1a1 1 0 00-1-1z"
      class="jsx-2668120564"
    ></path>
    <path
      d="M43 47h13V9H43zm2-33a2 2 0 012-2h5a2 2 0 012 2v28a2 2 0 01-2 2h-5a2 2 0 01-2-2z"
      class="jsx-2668120564"
    ></path>
  </g>
</svg>
