<svg
  version="1.1"
  xmlns="http://www.w3.org/2000/svg"
  xmlns:xlink="http://www.w3.org/1999/xlink"
  x="0px"
  y="0px"
  width="min(40px, max(29px, calc(((100vh - 64px) / 12) * 0.6))"
  height="min(40px, max(29px, calc(((100vh - 64px) / 12) * 0.6))"
  viewBox="0 0 277 271"
  enable-background="new 0 0 277 271"
  xml:space="preserve"
  style="
    transition: fill 225ms cubic-bezier(0.4, 0, 0.6, 1) 0ms,
      color 225ms cubic-bezier(0.4, 0, 0.6, 1) 0ms;
    border-right: 0;
    font-size: min(40px, max(29px, calc(((100vh - 64px) / 12) * 0.6)));
  "
>
  <g id="Layer_1_1">
    <g id="Layer_2_1_1" display="none">
      <rect display="inline" fill="#1565C0" width="277" height="271"></rect>
    </g>
    <g id="Layer_1_1_1">
      <g id="responsefirst_xA0_Image_1_1_1" display="none">
        <rect
          x="140"
          y="-129.333"
          display="inline"
          fill="none"
          width="308.667"
          height="19.333"
        ></rect>
        <line
          display="inline"
          fill="none"
          x1="-466"
          y1="-318"
          x2="-466"
          y2="-177.11"
        ></line>
      </g>
      <g id="Layer_4_1" display="none">
        <rect
          x="-452"
          y="-181"
          display="inline"
          fill="#1565C0"
          width="1200"
          height="630"
        ></rect>
      </g>
      <g id="Layer_2_1" display="none">
        <polygon
          display="inline"
          fill="none"
          stroke="#000000"
          stroke-width="20"
          stroke-miterlimit="10"
          points="364.729,264.868 138.875,397.43 -88.854,268.115 -90.729,6.238 136.125,-126.331 363.854,2.984 			"
        ></polygon>
        <circle
          display="inline"
          fill="none"
          stroke="#000000"
          stroke-width="20"
          stroke-miterlimit="10"
          cx="141"
          cy="139.557"
          r="125"
        ></circle>
        <line
          display="inline"
          fill="none"
          stroke="#000000"
          stroke-width="20"
          stroke-miterlimit="10"
          x1="138"
          y1="-114.667"
          x2="138"
          y2="14.594"
        ></line>
      </g>
      <g id="Layer_3_1">
        <g>
          <g>
            <path
              fill="#EAEAED"
              d="M141,260.5c-67.822,0-123-55.178-123-123s55.178-123,123-123c67.822,0,123,55.178,123,123 S208.822,260.5,141,260.5z M141,36.5c-55.691,0-101,45.309-101,101c0,55.691,45.309,101,101,101c55.691,0,101-45.309,101-101 C242,81.809,196.691,36.5,141,36.5z"
            ></path>
          </g>
        </g>
        <g><path d="M57.23,181.275"></path></g>
        <g>
          <polygon
            fill="#EAEAED"
            points="49.833,198.003 98.833,198.003 98.833,146.003 141,188.999 182.973,145.122 182.973,197.872 230.884,198.003 245.275,183.611 245.275,178.337 204.639,178.469 204.639,92.37 141,159 77.125,92.5 77.125,178.501 44.333,178.503 				"
          ></polygon>
        </g>
      </g>
    </g>
    <g id="Layer_3_1_1" display="none">
      <path
        display="inline"
        fill="#EAEAED"
        stroke="#1565C0"
        stroke-width="10"
        stroke-miterlimit="10"
        d="M223.904,17.333 l55.115,87.75h-41.339v146.251h-27.56v-146.25h-41.336L223.904,17.333z"
      ></path>
    </g>
  </g>
  <g id="Layer_2_2_1">
    <path
      fill="#EAEAED"
      stroke="#1565C0"
      stroke-width="10"
      stroke-miterlimit="10"
      d="M194.351,206.373c0-14.544,0-28.669,0-42.795 c0-1.033-0.022-2.089,0-3.124c0.109-4.84,3.211-7.986,8.029-8.031c7.394-0.065,14.787-0.044,22.157,0 c5.104,0.022,8.207,3.169,8.229,8.317c0.022,13.642,0,27.305,0,40.947c0,1.429,0,2.882,0,4.686c0.968,0,1.804,0,2.661,0 c7.548,0,15.094,0.022,22.642,0c2.245,0,4.158,0.528,5.17,2.751c0.968,2.112-0.088,3.674-1.407,5.191 c-14.721,17.097-29.418,34.215-44.138,51.311c-2.728,3.169-5.545,3.169-8.294-0.022c-14.765-17.162-29.528-34.345-44.292-51.507 c-1.276-1.495-2.156-3.015-1.21-5.017c0.925-2.003,2.597-2.729,4.688-2.729c7.546,0,15.094,0,22.64,0 C192.194,206.373,193.14,206.373,194.351,206.373z"
    ></path>
  </g>
</svg>
