<svg
  version="1.1"
  xmlns="http://www.w3.org/2000/svg"
  xmlns:xlink="http://www.w3.org/1999/xlink"
  class="MuiSvgIcon-root"
  focusable="false"
  viewBox="0 0 512 512"
  aria-hidden="true"
  style="
    transition: fill 225ms cubic-bezier(0.4, 0, 0.6, 1) 0ms,
      color 225ms cubic-bezier(0.4, 0, 0.6, 1) 0ms;
    border-right: 0px;
    font-size: min(40px, max(29px, ((100vh - 64px) / 12) * 0.6));
  "
>
  <path fill="white"
    d="M390 0H0v453.41C0 485.771 26.23 512 37.63 512h367.9c-9.74-12.78-15.53-28.72-15.53-46V0zM63.67 73.5h140v140h-140v-140zm262.66 365H63.67v-30h262.66v30zm0-55H63.67v-30h262.66v30zm0-55H63.67v-30h262.66v30zm0-55H63.67v-30h262.66v30zm0-60h-92v-30h92v30zm0-55h-92v-30h92v30zm0-55h-92v-30h92v30zM420 257.05V466c0 25.41 20.59 46 46 46s46-20.59 46-46V257.05h-92z"
    class="jsx-2668120564"
  ></path>
  <path fill="white"
    d="M135.376 87.992c-31.404 0-56.871 25.467-56.871 56.872a56.836 56.836 0 002.896 17.963H98.41v-47.85l36.967 36.967 36.966-36.967v47.85h17.01a56.81 56.81 0 002.897-17.964c-.001-31.405-25.468-56.871-56.874-56.871"
    class="jsx-2668120564"
  ></path>
  <path fill="white"
    d="M126.876 160.443l-16.133-16.134v30.109H86.779c9.984 16.378 28.015 27.316 48.596 27.316s38.614-10.938 48.596-27.316h-23.963v-30.109l-16.133 16.133-8.5 8.5-8.499-8.499z"
    class="jsx-2668120564"
  ></path>
</svg>
