<svg
  version="1.1"
  xmlns="http://www.w3.org/2000/svg"
  xmlns:xlink="http://www.w3.org/1999/xlink"
  class="MuiSvgIcon-root"
  focusable="false"
  viewBox="0 0 512 512"
  aria-hidden="true"
  style="
    transition: fill 225ms cubic-bezier(0.4, 0, 0.6, 1) 0ms,
      color 225ms cubic-bezier(0.4, 0, 0.6, 1) 0ms;
    border-right: 0;
    font-size: min(40px, max(29px, calc(((100vh - 64px) / 12) * 0.6)));
  "
>
  <path fill="white"
    d="M128 454.4c-25.6 25.6-83.2 12.8-83.2 12.8S32 409.6 57.6 384s48-28.8 48-28.8-41.6-9.6-67.2 19.2c-51.2 51.2-32 134.4-32 134.4s83.2 19.2 134.4-32c28.8-28.8 19.2-70.4 19.2-70.4s-6.4 22.4-32 48zM325.42 108.767l22.034 21.623 22.95-23.392-.007 37.949 38.245-1.213-23.281 23.726 21.493 21.204 12.825-.122 2.329-2.373-18.336-17.875 37.995-38.729-58.03 1.89.611-58.103-37.951 38.683-14.753-14.469z"
  ></path>
  <path fill="white"
    d="M512 0S400-12.8 297.6 89.6c-51.2 48-92.8 112-124.8 169.6l-80-19.2-51.2 51.2 89.6 44.8c-9.6 19.2-12.8 32-12.8 32l25.6 25.6s12.8-6.399 32-12.8l44.8 89.601 51.2-51.2-16-80c54.4-32 121.6-73.601 169.6-121.6C524.8 115.2 512 0 512 0zM328.5 126.421c0-33.137 26.863-60 60-60s60 26.863 60 60-26.863 60-60 60-60-26.863-60-60z"
  ></path>
</svg>
