<svg
  version="1.1"
  xmlns="http://www.w3.org/2000/svg"
  xmlns:xlink="http://www.w3.org/1999/xlink"
  class="MuiSvgIcon-root"
  focusable="false"
  viewBox="0 0 423 425"
  aria-hidden="true"
  id="prefix__Layer_1"
  x="0"
  y="0"
  xml:space="preserve"
  style="
    transition: fill 225ms cubic-bezier(0.4, 0, 0.6, 1) 0ms,
      color 225ms cubic-bezier(0.4, 0, 0.6, 1) 0ms;
    border-right: 0;
    font-size: min(40px, max(29px, calc(((100vh - 64px) / 12) * 0.6)));
  "
>
  <style>
    .prefix__st0 {
      fill: #fff;
    }
  </style>
  <path
    class="prefix__st0"
    d="M263.5 320.4c21.2 0 41.6-3.4 60.7-9.8-35.5-25.5-58.7-67.1-58.7-114.2 0-63.8 42.5-117.6 100.7-134.7-38.8-18.9-84.8-29.8-134.2-29.8-57.6 0-110.6 14.9-153 39.9-5.4 17.7-8.3 36.5-8.3 55.9.2 106.4 86.4 192.7 192.8 192.7z"
  ></path>
  <path
    class="prefix__st0"
    d="M66.7 311.2v-6.3c0-9.6 1.6-18.8 4.5-27.3 3.2 5.8 6.9 11.5 10.9 16.9 24.6 33.1 63.7 58.2 110.2 69.3l3.9.9c2.2.5 4.3.9 6.5 1.3 14.1 2.7 28.8 4.1 43.9 4.1 9.8 0 19.5-.6 28.9-1.8 22.1-2.7 43-8.5 61.9-16.8.6-.2 1.3-.5 1.9-.7-8.2 13.7-21.4 24.1-37.3 28.7-28.2 8.1-59.4 12.8-92.6 13.4-22.1-.4-39-1.4-58.8-5.1-1.3-.3-2.6-.5-4-.8-8-1.6-16.6-3.7-26.2-6.5-.2-.1-3.2-.9-3.4-1-5.8-1.8-11.4-4.4-16.5-7.5-20.2-12.5-33.8-35.1-33.8-60.8z"
  ></path>
</svg>
