<svg xmlns="http://www.w3.org/2000/svg" width="83" height="83" viewBox="0 0 83 83">
    <g fill="none" fill-rule="nonzero">
        <path fill="#f79b00" d="M81.76 51.539C76.215 73.775 53.694 87.3 31.455 81.759 9.23 76.215-4.303 53.696 1.243 31.465 6.784 9.229 29.303-4.301 51.534 1.242c22.237 5.543 35.767 28.064 30.224 50.297h.001z"/>
        <path fill="#FFF" d="M59.597 35.127c.827-5.522-3.378-8.49-9.127-10.47l1.865-7.481-4.553-1.135-1.816 7.284a192.664 192.664 0 0 0-3.647-.859l1.829-7.331L39.596 14l-1.865 7.478c-.99-.226-1.964-.449-2.908-.684l.005-.023-6.279-1.568-1.211 4.863s3.378.775 3.307.823c1.844.46 2.177 1.68 2.121 2.648l-2.124 8.522a4 4 0 0 1 .474.151l-.482-.119-2.977 11.938c-.226.56-.798 1.4-2.088 1.081.046.066-3.309-.826-3.309-.826L20 53.498l5.925 1.478c1.103.275 2.183.564 3.247.837l-1.885 7.566 4.548 1.134 1.865-7.487c1.243.339 2.449.649 3.629.943l-1.86 7.45 4.552 1.136 1.886-7.552c7.764 1.47 13.603.877 16.06-6.145 1.98-5.654-.098-8.916-4.183-11.044 2.975-.687 5.216-2.644 5.813-6.687zM49.193 49.715c-1.407 5.654-10.928 2.599-14.014 1.83l2.5-10.023c3.087.772 12.984 2.297 11.514 8.193zM50.6 35.047c-1.284 5.142-9.208 2.529-11.778 1.888l2.267-9.09c2.57.64 10.848 1.836 9.511 7.2v.002z"/>
    </g>
</svg>
